<svg xmlns="http://www.w3.org/2000/svg" viewBox="0 0 1200 675" width="1200" height="675">
  <defs><linearGradient id="g" x1="0" y1="0" x2="1" y2="1"><stop offset="0" stop-color="#FDF2F8"/><stop offset="1" stop-color="#FCE7F3"/></linearGradient></defs>
  <rect width="1200" height="675" fill="url(#g)"/>
  <circle cx="885" cy="338" r="7" fill="#EC4899" opacity="0.4"/><circle cx="879.3777613376963" cy="380.70514244191594" r="10" fill="#EC4899" opacity="0.5"/><circle cx="862.8941916244323" cy="420.5" r="13" fill="#EC4899" opacity="0.6000000000000001"/><circle cx="836.6726188957804" cy="454.6726188957803" r="7" fill="#EC4899" opacity="0.7000000000000001"/><circle cx="802.5" cy="480.8941916244324" r="10" fill="#EC4899" opacity="0.8"/><circle cx="762.7051424419159" cy="497.37776133769626" r="13" fill="#EC4899" opacity="0.4"/><circle cx="720" cy="503" r="7" fill="#EC4899" opacity="0.5"/><circle cx="677.294857558084" cy="497.37776133769626" r="10" fill="#EC4899" opacity="0.6000000000000001"/><circle cx="637.5" cy="480.8941916244324" r="13" fill="#EC4899" opacity="0.7000000000000001"/><circle cx="603.3273811042196" cy="454.6726188957804" r="7" fill="#EC4899" opacity="0.8"/><circle cx="577.1058083755677" cy="420.5" r="10" fill="#EC4899" opacity="0.4"/><circle cx="560.6222386623037" cy="380.705142441916" r="13" fill="#EC4899" opacity="0.5"/><circle cx="555" cy="338" r="7" fill="#EC4899" opacity="0.6000000000000001"/><circle cx="560.6222386623037" cy="295.2948575580841" r="10" fill="#EC4899" opacity="0.7000000000000001"/><circle cx="577.1058083755677" cy="255.5" r="13" fill="#EC4899" opacity="0.8"/><circle cx="603.3273811042196" cy="221.32738110421968" r="7" fill="#EC4899" opacity="0.4"/><circle cx="637.4999999999999" cy="195.10580837556765" r="10" fill="#EC4899" opacity="0.5"/><circle cx="677.2948575580841" cy="178.62223866230372" r="13" fill="#EC4899" opacity="0.6000000000000001"/><circle cx="720" cy="173" r="7" fill="#EC4899" opacity="0.7000000000000001"/><circle cx="762.7051424419159" cy="178.62223866230372" r="10" fill="#EC4899" opacity="0.8"/><circle cx="802.5" cy="195.10580837556762" r="13" fill="#EC4899" opacity="0.4"/><circle cx="836.6726188957803" cy="221.32738110421963" r="7" fill="#EC4899" opacity="0.5"/><circle cx="862.8941916244323" cy="255.49999999999994" r="10" fill="#EC4899" opacity="0.6000000000000001"/><circle cx="879.3777613376963" cy="295.2948575580841" r="13" fill="#EC4899" opacity="0.7000000000000001"/><circle cx="720" cy="338" r="40" fill="#F9A8D4"/>
</svg>