<svg xmlns="http://www.w3.org/2000/svg" viewBox="0 0 1200 675" width="1200" height="675">
  <defs><linearGradient id="g" x1="0" y1="0" x2="1" y2="1"><stop offset="0" stop-color="#FFF7ED"/><stop offset="1" stop-color="#FFEDD5"/></linearGradient></defs>
  <rect width="1200" height="675" fill="url(#g)"/>
  <line x1="790" y1="338" x2="930" y2="338" stroke="#F97316" stroke-width="8" stroke-linecap="round" opacity="0.35"/><line x1="784.67156727579" y1="364.78784026555627" x2="914.0147018273702" y2="418.36352079666887" stroke="#F97316" stroke-width="8" stroke-linecap="round" opacity="0.5"/><line x1="769.4974746830583" y1="387.49747468305833" x2="868.492424049175" y2="486.49242404917493" stroke="#F97316" stroke-width="8" stroke-linecap="round" opacity="0.6499999999999999"/><line x1="746.7878402655563" y1="402.67156727579004" x2="800.3635207966688" y2="532.0147018273702" stroke="#F97316" stroke-width="8" stroke-linecap="round" opacity="0.7999999999999999"/><line x1="720" y1="408" x2="720" y2="548" stroke="#F97316" stroke-width="8" stroke-linecap="round" opacity="0.35"/><line x1="693.2121597344437" y1="402.67156727579004" x2="639.6364792033312" y2="532.0147018273702" stroke="#F97316" stroke-width="8" stroke-linecap="round" opacity="0.5"/><line x1="670.5025253169417" y1="387.49747468305833" x2="571.5075759508251" y2="486.492424049175" stroke="#F97316" stroke-width="8" stroke-linecap="round" opacity="0.6499999999999999"/><line x1="655.32843272421" y1="364.78784026555627" x2="525.9852981726298" y2="418.36352079666887" stroke="#F97316" stroke-width="8" stroke-linecap="round" opacity="0.7999999999999999"/><line x1="650" y1="338" x2="510" y2="338" stroke="#F97316" stroke-width="8" stroke-linecap="round" opacity="0.35"/><line x1="655.32843272421" y1="311.21215973444373" x2="525.9852981726298" y2="257.6364792033312" stroke="#F97316" stroke-width="8" stroke-linecap="round" opacity="0.5"/><line x1="670.5025253169416" y1="288.50252531694167" x2="571.507575950825" y2="189.50757595082504" stroke="#F97316" stroke-width="8" stroke-linecap="round" opacity="0.6499999999999999"/><line x1="693.2121597344437" y1="273.32843272420996" x2="639.6364792033311" y2="143.98529817262983" stroke="#F97316" stroke-width="8" stroke-linecap="round" opacity="0.7999999999999999"/><line x1="720" y1="268" x2="720" y2="128" stroke="#F97316" stroke-width="8" stroke-linecap="round" opacity="0.35"/><line x1="746.7878402655563" y1="273.32843272420996" x2="800.3635207966689" y2="143.9852981726298" stroke="#F97316" stroke-width="8" stroke-linecap="round" opacity="0.5"/><line x1="769.4974746830583" y1="288.50252531694167" x2="868.4924240491749" y2="189.507575950825" stroke="#F97316" stroke-width="8" stroke-linecap="round" opacity="0.6499999999999999"/><line x1="784.67156727579" y1="311.2121597344437" x2="914.0147018273701" y2="257.636479203331" stroke="#F97316" stroke-width="8" stroke-linecap="round" opacity="0.7999999999999999"/><circle cx="720" cy="338" r="46" fill="#FDBA74"/>
</svg>