<svg xmlns="http://www.w3.org/2000/svg" viewBox="0 0 1200 675" width="1200" height="675">
  <defs><linearGradient id="g" x1="0" y1="0" x2="1" y2="1"><stop offset="0" stop-color="#FFF1F2"/><stop offset="1" stop-color="#FFE4E6"/></linearGradient></defs>
  <rect width="1200" height="675" fill="url(#g)"/>
  <circle cx="380" cy="200" r="17" fill="#FDA4AF" opacity="0.85"/><rect x="520" y="160" width="34" height="34" rx="8" fill="#F43F5E" opacity="0.85" transform="rotate(25 537 177)"/><circle cx="660" cy="240" r="17" fill="#F43F5E" opacity="0.85"/><rect x="800" y="180" width="34" height="34" rx="8" fill="#FDA4AF" opacity="0.85" transform="rotate(75 817 197)"/><circle cx="900" cy="300" r="17" fill="#FDA4AF" opacity="0.85"/><rect x="460" y="340" width="34" height="34" rx="8" fill="#F43F5E" opacity="0.85" transform="rotate(125 477 357)"/><circle cx="620" cy="380" r="17" fill="#F43F5E" opacity="0.85"/><rect x="780" y="420" width="34" height="34" rx="8" fill="#FDA4AF" opacity="0.85" transform="rotate(175 797 437)"/><circle cx="880" cy="470" r="17" fill="#FDA4AF" opacity="0.85"/><rect x="520" y="480" width="34" height="34" rx="8" fill="#F43F5E" opacity="0.85" transform="rotate(225 537 497)"/><circle cx="700" cy="520" r="17" fill="#F43F5E" opacity="0.85"/><rect x="400" y="460" width="34" height="34" rx="8" fill="#FDA4AF" opacity="0.85" transform="rotate(275 417 477)"/>
</svg>