<svg xmlns="http://www.w3.org/2000/svg" viewBox="0 0 1200 675" width="1200" height="675">
  <defs><linearGradient id="g" x1="0" y1="0" x2="1" y2="1"><stop offset="0" stop-color="#EEF2FF"/><stop offset="1" stop-color="#E0E7FF"/></linearGradient></defs>
  <rect width="1200" height="675" fill="url(#g)"/>
  <circle cx="360" cy="170" r="5" fill="#6366F1" opacity="0.25"/><circle cx="422" cy="170" r="5.9" fill="#6366F1" opacity="0.3"/><circle cx="484" cy="170" r="6.8" fill="#6366F1" opacity="0.35"/><circle cx="546" cy="170" r="7.7" fill="#6366F1" opacity="0.4"/><circle cx="608" cy="170" r="8.6" fill="#6366F1" opacity="0.45"/><circle cx="670" cy="170" r="9.5" fill="#6366F1" opacity="0.5"/><circle cx="732" cy="170" r="10.4" fill="#6366F1" opacity="0.55"/><circle cx="794" cy="170" r="11.3" fill="#6366F1" opacity="0.6000000000000001"/><circle cx="856" cy="170" r="12.2" fill="#6366F1" opacity="0.65"/><circle cx="360" cy="232" r="5.9" fill="#6366F1" opacity="0.3"/><circle cx="422" cy="232" r="6.8" fill="#6366F1" opacity="0.35"/><circle cx="484" cy="232" r="7.7" fill="#6366F1" opacity="0.4"/><circle cx="546" cy="232" r="8.6" fill="#6366F1" opacity="0.45"/><circle cx="608" cy="232" r="9.5" fill="#6366F1" opacity="0.5"/><circle cx="670" cy="232" r="10.4" fill="#6366F1" opacity="0.55"/><circle cx="732" cy="232" r="11.3" fill="#6366F1" opacity="0.6000000000000001"/><circle cx="794" cy="232" r="12.2" fill="#6366F1" opacity="0.65"/><circle cx="856" cy="232" r="13.1" fill="#6366F1" opacity="0.7"/><circle cx="360" cy="294" r="6.8" fill="#6366F1" opacity="0.35"/><circle cx="422" cy="294" r="7.7" fill="#6366F1" opacity="0.4"/><circle cx="484" cy="294" r="8.6" fill="#6366F1" opacity="0.45"/><circle cx="546" cy="294" r="9.5" fill="#6366F1" opacity="0.5"/><circle cx="608" cy="294" r="10.4" fill="#6366F1" opacity="0.55"/><circle cx="670" cy="294" r="11.3" fill="#6366F1" opacity="0.6000000000000001"/><circle cx="732" cy="294" r="12.2" fill="#6366F1" opacity="0.65"/><circle cx="794" cy="294" r="13.1" fill="#6366F1" opacity="0.7"/><circle cx="856" cy="294" r="14" fill="#6366F1" opacity="0.75"/><circle cx="360" cy="356" r="7.7" fill="#6366F1" opacity="0.4"/><circle cx="422" cy="356" r="8.6" fill="#6366F1" opacity="0.45"/><circle cx="484" cy="356" r="9.5" fill="#6366F1" opacity="0.5"/><circle cx="546" cy="356" r="10.4" fill="#6366F1" opacity="0.55"/><circle cx="608" cy="356" r="11.3" fill="#6366F1" opacity="0.6000000000000001"/><circle cx="670" cy="356" r="12.2" fill="#6366F1" opacity="0.65"/><circle cx="732" cy="356" r="13.1" fill="#6366F1" opacity="0.7"/><circle cx="794" cy="356" r="14" fill="#6366F1" opacity="0.75"/><circle cx="856" cy="356" r="14.9" fill="#6366F1" opacity="0.8"/><circle cx="360" cy="418" r="8.6" fill="#6366F1" opacity="0.45"/><circle cx="422" cy="418" r="9.5" fill="#6366F1" opacity="0.5"/><circle cx="484" cy="418" r="10.4" fill="#6366F1" opacity="0.55"/><circle cx="546" cy="418" r="11.3" fill="#6366F1" opacity="0.6000000000000001"/><circle cx="608" cy="418" r="12.2" fill="#6366F1" opacity="0.65"/><circle cx="670" cy="418" r="13.1" fill="#6366F1" opacity="0.7"/><circle cx="732" cy="418" r="14" fill="#6366F1" opacity="0.75"/><circle cx="794" cy="418" r="14.9" fill="#6366F1" opacity="0.8"/><circle cx="856" cy="418" r="15.8" fill="#6366F1" opacity="0.8500000000000001"/><circle cx="360" cy="480" r="9.5" fill="#6366F1" opacity="0.5"/><circle cx="422" cy="480" r="10.4" fill="#6366F1" opacity="0.55"/><circle cx="484" cy="480" r="11.3" fill="#6366F1" opacity="0.6000000000000001"/><circle cx="546" cy="480" r="12.2" fill="#6366F1" opacity="0.65"/><circle cx="608" cy="480" r="13.1" fill="#6366F1" opacity="0.7"/><circle cx="670" cy="480" r="14" fill="#6366F1" opacity="0.75"/><circle cx="732" cy="480" r="14.9" fill="#6366F1" opacity="0.8"/><circle cx="794" cy="480" r="15.8" fill="#6366F1" opacity="0.8500000000000001"/><circle cx="856" cy="480" r="16.700000000000003" fill="#6366F1" opacity="0.9"/>
</svg>